<!DOCTYPE svg PUBLIC "-//W3C//DTD SVG 1.1//EN" "http://www.w3.org/Graphics/SVG/1.1/DTD/svg11.dtd">
<!-- Uploaded to: SVG Repo, www.svgrepo.com, Transformed by: SVG Repo Mixer Tools -->
<svg width="800px" height="800px" viewBox="0 0 108 108" id="Layeri" xmlns="http://www.w3.org/2000/svg" xmlns:xlink="http://www.w3.org/1999/xlink" fill="#ffffff" stroke="#ffffff">
<g id="SVGRepo_bgCarrier" stroke-width="0"/>
<g id="SVGRepo_tracerCarrier" stroke-linecap="round" stroke-linejoin="round"/>
<g id="SVGRepo_iconCarrier"> <defs> <style>.cls-1{fill:none;}.cls-2{clip-path:url(#clip-path);}</style> <clipPath id="clip-path"> <rect class="cls-1" height="104" width="104" x="2" y="2"/> </clipPath> </defs> <title/> <g class="cls-2"> <path d="M84.4,37.06s0,0,0,0v0S84.39,37,84.4,37.06Z"/> <path d="M19.65,37.49a1.06,1.06,0,0,1-.15-.15,1.1,1.1,0,0,0,.14.11Z"/> <path d="M84.4,37.06s0,0,0,0v0S84.39,37,84.4,37.06Z"/> <path d="M88.14,19.89a10.46,10.46,0,0,0-5-1.46,12.11,12.11,0,0,0-1.5-6A12.55,12.55,0,0,0,68.19,6.3a11.43,11.43,0,0,0-4,1.81A12,12,0,0,0,42.4,9.91a13.13,13.13,0,0,0-9.81,3.64,12,12,0,0,0-2.85,4.51,11,11,0,0,0-11,1.36c-4.14,3.33-3.84,8.71-3.74,9.75a12.22,12.22,0,0,0,4.49,8.17,1.1,1.1,0,0,0,.14.11v0l1.76,16.72,4.7,44.67a8,8,0,0,0,8,7.16H73.93a8,8,0,0,0,8-7.16l1.56-14.8-4-.21L77.91,98.46a4,4,0,0,1-4,3.58h-6.4l1.47-47V55l.48-15.21a25.62,25.62,0,0,0,5.07-2c2-1,4-1.91,5.7-1.91A10.54,10.54,0,0,1,84.38,37v0s0,0,0,0,0,0,0,0L82.61,53.79,80.7,71.92l4,.22,1.89-17.93L88.4,37a10.06,10.06,0,0,0,4.82-8.18C93.4,23.21,88.68,20.21,88.14,19.89ZM34.07,102a4,4,0,0,1-4-3.58l-4.7-44.67L23.62,37a10.55,10.55,0,0,1,4.13-1.17c1.73,0,3.66.93,5.7,1.91a25.62,25.62,0,0,0,5.07,2L39,53.33v.07c0,.07,0,.13,0,.2l1.27,40.74v.06c0,.07,0,.13,0,.2l.23,7.44ZM65,54.94V55l-1.47,47H44.47l-.24-7.71v-.06L43,53.34v-.06l-.42-13.34a22.1,22.1,0,0,0,5.77-2.15c2-1,4-1.91,5.7-1.91s3.66.93,5.7,1.91a22.1,22.1,0,0,0,5.77,2.15ZM86.38,33.57a14.77,14.77,0,0,0-6.13-1.69c-2.64,0-5.08,1.17-7.43,2.3-2,1-4,1.91-5.69,1.91s-3.66-.93-5.7-1.91c-2.35-1.13-4.79-2.3-7.43-2.3s-5.08,1.17-7.43,2.3c-2,1-4,1.91-5.7,1.91s-3.65-.93-5.69-1.91c-2.36-1.13-4.79-2.3-7.43-2.3a15,15,0,0,0-6.36,1.8,8,8,0,0,1-2.4-4.9c-.07-.68-.27-4.2,2.26-6.25a7.16,7.16,0,0,1,7.66-.46A15.58,15.58,0,0,0,29,25.28,2,2,0,0,0,31,27l.3,0A2,2,0,0,0,33,24.67c-.08-.52-.69-5.18,2.43-8.28s8.34-3.36,12.52-.73a2,2,0,0,0,2.14-3.38,15,15,0,0,0-3.6-1.66,8.29,8.29,0,0,1,6-4.5A8.62,8.62,0,0,1,61.62,12a2,2,0,0,0,3.36.67,8.06,8.06,0,0,1,4.1-2.48,8.6,8.6,0,0,1,9.1,4.16A8.72,8.72,0,0,1,79,20.19a2,2,0,0,0,2.35,2.35,6.87,6.87,0,0,1,4.74.78c.13.08,3.25,2,3.14,5.41A6,6,0,0,1,86.38,33.57Z"/> <rect height="4" rx="2" ry="2" transform="translate(4.31 -4.29) rotate(3.08)" width="4" x="80" y="76"/> </g> </g>
</svg>