<svg id="Livello_1" data-name="Livello 1" xmlns="http://www.w3.org/2000/svg" viewBox="0 0 1080 1080"><defs><style>.cls-1{fill:none;}.cls-2{fill:#231f20;}</style></defs><path class="cls-1" d="M295.31,643.11a21.83,21.83,0,0,0,13,19.91,256.55,256.55,0,0,1-12.05-25.86A21.33,21.33,0,0,0,295.31,643.11Z"/><path class="cls-1" d="M368,643.11a50.58,50.58,0,0,1-12.22,33A227.73,227.73,0,0,0,538.51,768c125.7,0,228-102.26,228-228s-102.26-228-228-228-228,102.27-228,228a228.07,228.07,0,0,0,6.13,52.33c.16,0,.31,0,.47,0A50.87,50.87,0,0,1,368,643.11Z"/><path class="cls-1" d="M326.43,623.44a229.42,229.42,0,0,0,11.72,25.22,21.21,21.21,0,0,0,.81-5.55A21.8,21.8,0,0,0,326.43,623.44Z"/><path class="cls-2" d="M538.51,278.91c-144,0-261.09,117.13-261.09,261.09a260.36,260.36,0,0,0,7.87,63.58,50.76,50.76,0,0,0,41.8,89.34c47.49,65.47,124.54,108.17,211.42,108.17C682.47,801.09,799.6,684,799.6,540S682.47,278.91,538.51,278.91Zm-221.37,386A21.57,21.57,0,0,1,308.3,663a21.83,21.83,0,0,1-13-19.91,21.33,21.33,0,0,1,.94-6,21.78,21.78,0,0,1,42.71,6,21.21,21.21,0,0,1-.81,5.55A21.79,21.79,0,0,1,317.14,664.93ZM538.51,768a227.73,227.73,0,0,1-182.78-91.89,50.74,50.74,0,0,0-38.59-83.77c-.16,0-.31,0-.47,0A228.07,228.07,0,0,1,310.54,540c0-125.7,102.27-228,228-228s228,102.27,228,228S664.21,768,538.51,768Z"/><path class="cls-1" d="M286.15,345.36a50.51,50.51,0,0,1-18.48-3.53A335.13,335.13,0,0,0,203,540c0,185.82,151.17,337,337,337S877,725.82,877,540,725.82,203,540,203a335.19,335.19,0,0,0-207.18,71.5,50.34,50.34,0,0,1,4.14,20A50.87,50.87,0,0,1,286.15,345.36Z"/><path class="cls-1" d="M307.82,296.1q-10.12,9.63-19.43,20A21.72,21.72,0,0,0,307.82,296.1Z"/><path class="cls-1" d="M284,273a21.72,21.72,0,0,0-19.53,20.21Q273.86,282.69,284,273Z"/><path class="cls-2" d="M540,169.88a368.3,368.3,0,0,0-229.6,80,50.74,50.74,0,0,0-68,70.32A368.17,368.17,0,0,0,169.88,540c0,204.08,166,370.12,370.12,370.12S910.12,744.08,910.12,540,744.08,169.88,540,169.88ZM264.47,293.16A21.72,21.72,0,0,1,284,273c.72-.07,1.42-.22,2.15-.22A21.84,21.84,0,0,1,308,294.55c0,.53-.12,1-.15,1.55a21.72,21.72,0,0,1-19.43,20c-.75.07-1.47.23-2.24.23a21.86,21.86,0,0,1-21.82-21.83C264.33,294.07,264.44,293.63,264.47,293.16ZM540,877c-185.82,0-337-151.17-337-337a335.13,335.13,0,0,1,64.66-198.17,50.75,50.75,0,0,0,65.15-67.32A335.19,335.19,0,0,1,540,203c185.82,0,337,151.17,337,337S725.82,877,540,877Z"/></svg>